<svg xmlns="http://www.w3.org/2000/svg" viewBox="0 0 1118.7 371.5"><g data-name="Calque 2"><g data-name="dark"><path fill="none" d="M0 0h1118.7v371.53H0z"/><path d="M452.8 276.5a17.4 17.4 0 0 0 12.7 5.6c5.8 0 8.1-2.8 8.1-5.5s-4.3-4.7-9.2-6c-6.6-1.6-14.3-3.6-14.3-12.1 0-6.6 5.9-11.8 14.7-11.8 6.3 0 11.3 2 15.1 5.6l-4 5.2a16.4 16.4 0 0 0-11.6-4.6c-4.2 0-6.8 2-6.8 5s4.1 4.2 8.9 5.4c6.6 1.7 14.5 3.7 14.5 12.5 0 6.7-4.7 12.4-15.6 12.4-7.4 0-12.8-2.6-16.4-6.4zm87.5-5.6l-15.6-23.5h8.1l11.1 17.3 11-17.3h8.1l-15.6 23.5v16.7h-7.1zm69.4 5.6a17.4 17.4 0 0 0 12.7 5.6c5.8 0 8.1-2.8 8.1-5.5s-4.3-4.7-9.2-6c-6.6-1.6-14.3-3.6-14.3-12.1 0-6.6 5.9-11.8 14.7-11.8 6.3 0 11.3 2 15.1 5.6l-4 5.2a16.4 16.4 0 0 0-11.6-4.6c-4.2 0-6.8 2-6.8 5s4.1 4.2 8.9 5.4c6.6 1.7 14.5 3.7 14.5 12.5 0 6.7-4.7 12.4-15.6 12.4-7.4 0-12.8-2.6-16.4-6.4zm85.8-22.9h-12.2v-6.2h31.4v6.2h-12.2v34h-7.1zm67.5-6.2h27.6v6.2H770V264h20.1v6.2H770v11.2h20.5v6.2H763zm111.8 10.4l-12.4 29.9h-3l-12.3-29.9v29.9H840v-40.3h10l10.9 26.5 11-26.5h10v40.3h-7.1zm59.2 18.7a17.4 17.4 0 0 0 12.7 5.6c5.8 0 8.1-2.8 8.1-5.5s-4.3-4.7-9.2-6c-6.6-1.6-14.3-3.6-14.3-12.1 0-6.6 5.9-11.8 14.7-11.8 6.3 0 11.3 2 15.1 5.6l-4 5.2a16.4 16.4 0 0 0-11.6-4.6c-4.2 0-6.8 2-6.8 5s4.1 4.2 8.9 5.4c6.6 1.7 14.5 3.7 14.5 12.5 0 6.7-4.7 12.4-15.6 12.4-7.4 0-12.8-2.6-16.4-6.4z" fill="#a2a5ab"/><path d="M462.7 181.8a46 46 0 1 1 .6-74.7L474 96.3a61 61 0 1 0-.6 96.2zm42.3-10.6a46 46 0 0 1 64.3-64.2L580 96.3a61 61 0 0 0-85.7 85.7zm85.5-64.2l-10.7 10.7a46 46 0 0 1-64.1 64.1L505 192.5a61 61 0 0 0 85.5-85.5zm289.9-23.8h15v121.95h-15zm155.2 110.9l-50-50 49.9-50-10.6-10.6-110.7 110.8 10.6 10.6 50.2-50.2 50 50.1 10.6-10.7z" fill="#fff"/><path fill="#deb857" d="M914.416 94.11l10.607-10.606 39.365 39.365-10.607 10.606z"/><path d="M721.1 143.7h-30.3l-15 15h30.3v22.7a46 46 0 1 1 .2-74.5L717 96.3a61 61 0 1 0 4.1 92.2zm43.2-34.5l67.7 96h15v-122h-15v95.9l-67.7-95.9h-15v122h15v-96z" fill="#fff"/><path d="M273.4 244a104 104 0 0 0 .7-115.4l-58.2 58z" fill="#deb857"/><path d="M214.7 242.9a63.4 63.4 0 1 1 1.1-113.7l29.6-29.6a104 104 0 1 0-1 173z" fill="#fff"/></g></g></svg>